/* XPM */ 
static char * lock_xpm[] = {
"16 16 61 1",
" 	c None",
"!	c white",
"#	c black",
"$	c #F1F1F1",
"%	c #E0E0E0",
"&	c #C5C5C5",
"'	c #717171",
"(	c #7A7A7A",
")	c #A9A9A9",
"*	c #E2E2E2",
"+	c #F4F4F4",
",	c #B2B2B2",
"-	c #838383",
".	c #CBCBCB",
"0	c #999999",
"1	c #BEBEBE",
"2	c #ADADAD",
"3	c #949494",
"4	c #969696",
"5	c #CCCCCC",
"6	c #757575",
"7	c #7C7C7C",
"8	c #DCDCDC",
"9	c #898989",
":	c #646464",
";	c #C6C6C6",
"<	c #7E7E7E",
"=	c #040404",
">	c #030303",
"?	c #010101",
"@	c #595959",
"A	c #E9E9E9",
"B	c #505050",
"C	c #2C2C2C",
"D	c #404040",
"E	c #494949",
"F	c #323232",
"G	c #353535",
"H	c #303030",
"I	c #424242",
"J	c #464646",
"K	c #191919",
"L	c #282828",
"M	c #232323",
"N	c #272727",
"O	c #3A3A3A",
"P	c #5D5D5D",
"Q	c #383838",
"R	c #3D3D3D",
"S	c #434343",
"T	c #474747",
"U	c #313131",
"V	c #454545",
"W	c #484848",
"X	c #080808",
"Y	c #1F1F1F",
"Z	c #1E1E1E",
"[	c #121212",
"]	c #3B3B3B",
"^	c #4F4F4F",
"_	c #6A6A6A",
"!               ",
"!!!!!!!!!!!!$!!!",
"!!!!!!!!!!!!!!!!",
"!!!!!%&'()*!!+!!",
"!!!!!,-!.01!!!!!",
"!!!!!23!!40+!!!!",
"!!!!5678!9:;!!!!",
"!!!!<#=>#?#@A!!!",
"!!!!BCDEFGHI!!!!",
"!!!!JKLMMHNO!!!!",
"!!!!PQERSTUV!!!!",
"!!!!WX?YZK[]!!!!",
"!!!!(^ED]QS_!!!!",
"!!!!!!!!!!!!!!!!",
"!!!!!!!!!!!!!!!!",
"!!!!!!!!!!!!!!!!"};