/* XPM */ 
static char * image1_xpm[] = {
"16 16 215 2",
"  	c None",
"! 	c #F9FFFF",
"# 	c #F2FDFF",
"$ 	c #E6F4F7",
"% 	c #F8FFFF",
"& 	c #FBFFFB",
"' 	c #F9F9ED",
"( 	c #FFFFEE",
") 	c #FFFFED",
"* 	c #FFFFEF",
"+ 	c #FFFFF6",
", 	c #FBFFFC",
"- 	c #F6FFFF",
". 	c #F5FFFF",
"0 	c #F7FBFA",
"1 	c #FBFDF8",
"2 	c #FEFFFB",
"3 	c #F6FEFF",
"4 	c #F7FFFF",
"5 	c #EDFBFC",
"6 	c #FCFFF8",
"7 	c #F0EBD7",
"8 	c #FFFFEA",
"9 	c #FFFDEA",
": 	c #FFFFF3",
"; 	c #FEFFF8",
"< 	c #EBF4F3",
"= 	c #F1FBFC",
"> 	c #F5FBF9",
"? 	c #FCFFFD",
"@ 	c #FBFFFF",
"A 	c #DEE8EA",
"B 	c #A1ABA3",
"C 	c #060A00",
"D 	c #040200",
"E 	c #292206",
"F 	c #0B0000",
"G 	c #070000",
"H 	c #040000",
"I 	c #1C1E19",
"J 	c #D1D7D5",
"K 	c #FAFFFE",
"L 	c #FCFFFF",
"M 	c #EBEEF3",
"N 	c #E3ECE9",
"O 	c #000200",
"P 	c #F9F8E4",
"Q 	c #FFFFE4",
"R 	c #FCEDCC",
"S 	c #FFFDDC",
"T 	c #FFF4D4",
"U 	c #FFFDE4",
"V 	c #FEF3E1",
"W 	c #D9D3C7",
"X 	c #010000",
"Y 	c #F5FBFB",
"Z 	c #FAFEFF",
"[ 	c #F4F3FB",
"] 	c #F3F8F4",
"^ 	c #010200",
"_ 	c #E3D4B3",
"` 	c #DFCCA4",
"a 	c #F4DBB3",
"b 	c #E1C7A2",
"c 	c #EBD2B4",
"d 	c #DECAB2",
"e 	c #C1B1A1",
"f 	c #120900",
"g 	c white",
"h 	c #F8FBFF",
"i 	c #FCFDFF",
"j 	c #FFFDFF",
"k 	c #DAD9DE",
"l 	c #FFFFFA",
"m 	c #242110",
"n 	c #D3C7AD",
"o 	c #F5E1BC",
"p 	c #F5DAAF",
"q 	c #DCBB8E",
"r 	c #F5D2A8",
"s 	c #3A1800",
"t 	c #EECFB2",
"u 	c #9C826B",
"v 	c #0E0000",
"w 	c #FEFAFB",
"x 	c #FEFEFF",
"y 	c #FFFCFF",
"z 	c #FFFEFF",
"{ 	c #F2EFE8",
"| 	c #FFFEE1",
"} 	c #F3DAB2",
"~ 	c #E7C597",
" !	c #FFE8B7",
"!!	c #FFD6A6",
"#!	c #220000",
"$!	c #F6D0AC",
"%!	c #DDBA9E",
"&!	c #140000",
"'!	c #F8F2F4",
"(!	c #FFFEF8",
")!	c #0A0000",
"*!	c #EBD8B8",
"+!	c #F0D0A7",
",!	c #E8C08F",
"-!	c #FDCF9B",
".!	c #FFD19E",
"0!	c #FFD3A5",
"1!	c #FFDDB6",
"2!	c #B18666",
"3!	c #1D0000",
"4!	c #FBF2F5",
"5!	c #FAF6FF",
"6!	c #FAF5FC",
"7!	c #FFFEF4",
"8!	c #FFFCDC",
"9!	c #F6D5AC",
":!	c #FFD7A6",
";!	c #F7C995",
"<!	c #FFD1A0",
"=!	c #FBCFA2",
">!	c #F8D1AA",
"?!	c #C7A486",
"@!	c #120000",
"A!	c #FFFEFB",
"B!	c #F3F2FA",
"C!	c #FDF7EB",
"D!	c #0D0000",
"E!	c #FFF0D1",
"F!	c #F9D7B1",
"G!	c #FED8AB",
"H!	c #F2C99B",
"I!	c #FFDAAD",
"J!	c #EACAA3",
"K!	c #200700",
"L!	c #120B00",
"M!	c #FBFFF3",
"N!	c #F5FFF5",
"O!	c #F9FEF8",
"P!	c #FDFFFA",
"Q!	c #EBEAE5",
"R!	c #FBF5E9",
"S!	c #FFFBDF",
"T!	c #FFE8C5",
"U!	c #D3B088",
"V!	c #FFE5BB",
"W!	c #240400",
"X!	c #E8D0AE",
"Y!	c #D0C2A7",
"Z!	c #221D09",
"[!	c #F3F8E4",
"]!	c #F7FFEE",
"^!	c #F7FFF3",
"_!	c #FBFFF8",
"`!	c #FDFFFC",
"a!	c #EEEDE9",
"b!	c #F1DDC4",
"c!	c #DFC2A2",
"d!	c #FFE9C4",
"e!	c #D2B08B",
"f!	c #E7CAA8",
"g!	c #170C00",
"h!	c #050300",
"i!	c #F6FCEE",
"j!	c #EFFCE8",
"k!	c #F8FFF3",
"l!	c #F8FEF4",
"m!	c #F5F7F6",
"n!	c #FFFFFD",
"o!	c #E3E0DB",
"p!	c #080000",
"q!	c #FFFCE8",
"r!	c #E7CDB2",
"s!	c #FFE8CA",
"t!	c #F0D1B2",
"u!	c #FDE4C6",
"v!	c #E3D3BC",
"w!	c #A49D8D",
"x!	c #F9FFFA",
"y!	c #F8FFF4",
"z!	c #F5FFF0",
"{!	c #EBF0E9",
"|!	c #FEFFFF",
"}!	c #E6E7E9",
"~!	c #A79E97",
" #	c #150000",
"!#	c #110000",
"##	c #2D2111",
"$#	c #040100",
"%#	c #BCC2C0",
"&#	c #F2FDF9",
"'#	c #F8FFF8",
"(#	c #F2F5EE",
")#	c #FFFEFA",
"*#	c #FFFCF4",
"+#	c #FFFBED",
",#	c #FFF5E2",
"-#	c #FFFBE8",
".#	c #FFEFDF",
"0#	c #EAE3D9",
"1#	c #FCFEFB",
"2#	c #F9FFFB",
"3#	c #FBFFF7",
"4#	c #F4F4FC",
"5#	c #EDF0F7",
"6#	c #EDEEF3",
"7#	c #F9EFED",
"8#	c #FFFCF3",
"9#	c #F9E9DC",
":#	c #FFFCEF",
";#	c #FDF0E7",
"<#	c #CDDAE2",
"=#	c #F4FFFF",
">#	c #F1FAF7",
"?#	c #FDFFF9",
"@#	c #FFFFFB",
"! # $ % & ' ( ) * + , - . 0 1 2 ",
"3 4 5 % 6 * 7 8 9 : ; < = > , ? ",
"@ A % B C D E F F G H I J @ K L ",
"M ! N O P Q R S T U V W X L Y Z ",
"[ L ] ^ 8 _ ` a b c d e f g h i ",
"j k l m n o p q r s t u v w L x ",
"y z { G | } ~  !!!#!$!%!&!'!x j ",
"y j (!)!*!+!,!-!.!0!1!2!3!4!x 5!",
"6!w 7!F 8!9!:!;!<!=!>!?!@!A!L B!",
"g l C!D!E!F!G!H!I!J!K!v L!M!N!O!",
"P!Q!R!D!S!T!U!V!W!X!Y!Z![!]!^!_!",
"`!a!+ F b!c!d!e!f!@!g!h!i!j!k!l!",
"m!n!o!p!q!r!s!t!u!v!w!O x!y!z!{!",
"|!}!n!~!D!@!&! #!###$#%#&#'#k!(#",
"|!|!g )#*#+#,#-#.#0#1#% . 2#3#2 ",
"4#5#6#z 7#8#9#:#;#l @ <#=#>#?#@#"};