/* XPM */ 
static char * go_xpm[] = {
"16 16 17 1",
" 	c None",
"!	c white",
"#	c black",
"$	c #3EA13B",
"%	c #028C02",
"&	c #008B00",
"'	c #349C31",
"(	c #FEFEFE",
")	c #3EA13C",
"*	c #018B01",
"+	c #00AC00",
",	c #369D33",
"-	c #00BD00",
".	c #00EE00",
"0	c #00DE00",
"1	c #3FA13C",
"2	c #359C32",
"!               ",
"!!!!!!!!!!!!!!!!",
"!!!!!!!!!!!!!!!!",
"!!!!!!$%&'!!!!!!",
"!(!!)*++++&,!!!!",
"!!!!&-!.0++&!!!!",
"!!!1+.0+++++'!!!",
"!!!&+0++++++&!!!",
"!!!&++++++++&!!!",
"!(!2++++++0+'!!!",
"!!!!&++++0-&!!!!",
"!!!!,&++++%)!!!!",
"!!!!!!'&%$!!!!!!",
"!!!!!!!!!!!!!!!!",
"!!!!!!!!!!!!!!!!",
"!!!!!!!!!!!!!!!!"};