/* XPM */ 
static char * players_xpm[] = {
"16 16 98 2",
"  	c None",
"! 	c white",
"# 	c black",
"$ 	c #BEC2C3",
"% 	c #BABEBF",
"& 	c #525657",
"' 	c #565A5B",
"( 	c #A2A6A7",
") 	c #939798",
"* 	c #CACECF",
"+ 	c #10150F",
", 	c #0C110B",
"- 	c #454A44",
". 	c #8D928C",
"0 	c #6A6F69",
"1 	c #70756F",
"2 	c #727771",
"3 	c #1E231D",
"4 	c #1D221C",
"5 	c #3B403A",
"6 	c #8A8F89",
"7 	c #858A84",
"8 	c #848983",
"9 	c #898E88",
": 	c #1B1F20",
"; 	c #323637",
"< 	c #333738",
"= 	c #434748",
"> 	c #8F9394",
"? 	c #868A8B",
"@ 	c #878B8C",
"A 	c #2F3334",
"B 	c #242829",
"C 	c #222627",
"D 	c #5C6061",
"E 	c #A7ABAC",
"F 	c #9CA0A1",
"G 	c #95999A",
"H 	c #929697",
"I 	c #C8CCCF",
"J 	c #616568",
"K 	c #363A3D",
"L 	c #33373A",
"M 	c #A3A7AA",
"N 	c #D6DADD",
"O 	c #999DA0",
"P 	c #95999C",
"Q 	c #777B7E",
"R 	c #3E4245",
"S 	c #2F3336",
"T 	c #C9CDD0",
"U 	c #8B8F92",
"V 	c #94989B",
"W 	c #B2B6B9",
"X 	c #848887",
"Y 	c #4A4E4D",
"Z 	c #353938",
"[ 	c #272B2A",
"] 	c #6E7271",
"^ 	c #9CA09F",
"_ 	c #989C9B",
"` 	c #AEB2B1",
"a 	c #3D4140",
"b 	c #3F4342",
"c 	c #303433",
"d 	c #777B7A",
"e 	c #8F9392",
"f 	c #9EA2A1",
"g 	c #AFB3B2",
"h 	c #B0B4B3",
"i 	c #A6AAA9",
"j 	c #A5A9A8",
"k 	c #9FA3A2",
"l 	c #A7ABAA",
"m 	c #575757",
"n 	c #2F2F2F",
"o 	c #3C3C3C",
"p 	c #494949",
"q 	c #6C6C6C",
"r 	c #989898",
"s 	c #B0B0B0",
"t 	c #A9A9A9",
"u 	c #A8A8A8",
"v 	c #ADADAD",
"w 	c #B1B1B1",
"x 	c #B2B2B2",
"y 	c #B9B9B9",
"z 	c #999999",
"{ 	c #8E8E8E",
"| 	c #9E9E9E",
"} 	c #9C9C9C",
"~ 	c #ACACAC",
" !	c #B5B5B5",
"!!	c #B6B6B6",
"#!	c #B8B8B8",
"$!	c #BBBBBB",
"%!	c #BDBDBD",
"&!	c #C4C4C4",
"!                               ",
"! ! ! ! ! $ % ! ! ! ! ! ! ! ! ! ",
"! ! ! ! ! & ' ! ! ( ) * ! ! ! ! ",
"! ! ! ! + + , - . 0 1 2 ! ! ! ! ",
"! ! ! ! , 3 4 5 6 7 8 9 ! ! ! ! ",
"! ! ! ! : ; < = > ) ? @ ! ! ! ! ",
"! ! ! ! A B C D E F G H ! ! ! ! ",
"I ! ! ! J K L M N O P ! ! ! ! ! ",
"! ! ! ! Q R S M T U V W ! ! ! ! ",
"! ! ! X Y Z [ ] ^ _ ` ^ ! ! ! ! ",
"! X a b c d e f g h i j k l ! ! ",
"m n o p q r s s t u v w s x y ! ",
"z { | { } ~  !!!!!#!$!y #!y %!&!",
"! ! ! ! ! ! ! ! ! ! ! ! ! ! ! ! ",
"! ! ! ! ! ! ! ! ! ! ! ! ! ! ! ! ",
"! ! ! ! ! ! ! ! ! ! ! ! ! ! ! ! "};